<?xml version="1.0" encoding="iso-8859-1"?>
<!-- Generator: Adobe Illustrator 16.0.0, SVG Export Plug-In . SVG Version: 6.00 Build 0)  -->
<!DOCTYPE svg PUBLIC "-//W3C//DTD SVG 1.1//EN" "http://www.w3.org/Graphics/SVG/1.1/DTD/svg11.dtd">
<svg version="1.1" id="Capa_1" xmlns="http://www.w3.org/2000/svg" xmlns:xlink="http://www.w3.org/1999/xlink" x="0px" y="0px"
	 width="485.241px" height="485.241px" viewBox="0 0 485.241 485.241" style="enable-background:new 0 0 485.241 485.241;"
	 xml:space="preserve">
<g>
	<g>
		<polygon points="67.337,209.203 67.337,275.703 208.671,275.703 208.671,179.703 160.957,218.203 114.504,150.203 		"/>
		<circle cx="174.287" cy="134.819" r="21.9"/>
		<path d="M392.551,243.889l-1.457,3.135c-2.67-4.409-6.402-11.096-10.594-18.604c-11.816-21.17-28.002-50.165-44.762-72.784
			l-0.342-0.44c-16.662-20.617-35.176-30.641-56.593-30.641c-6.991,0-14.317,1.116-21.776,3.316
			c-25.36,7.477-29.272,23.495-29.776,30.02c-0.987,12.584,8.692,36.239,34.591,48.491l0.021,18.76
			c12.867-3.451,28.646-10.37,29.91-20.682c1.047-8.535-3.346-16.737-11.123-20.439c-23.09-10.955-27.32-20.581-26.955-24.072
			c1.623-15.56,34.305-21.107,60.9,11.707c15.686,21.22,31.318,49.225,42.742,69.692c3.697,6.624,6.896,12.356,9.557,16.881
			l-75.902,163.775c-7.472-2.03-14.006-2.938-20.617-2.938c-4.116,0-7.891,0.342-11.562,0.674
			c-4.035,0.363-8.208,0.738-13.562,0.738c-3.56,0-7.269-0.162-11.342-0.497c-24.183-1.979-62.971-20.846-80.709-30.871
			c-8.762-6.45-9.573-10.621-7.96-19.165h-26.796c-1.475,12.638,0.711,27.337,19.808,41.091l0.574,0.414l0.614,0.35
			c5.682,3.235,56.541,31.69,92.301,34.617c4.801,0.395,9.221,0.586,13.51,0.586c6.547,0,11.537-0.449,15.979-0.85
			c3.344-0.304,6.229-0.563,9.148-0.563c4.806,0,10.918,0.61,22.982,5.029l2.594,1.027l-1.359,2.923l65.969,30.673l97.957-210.679
			L392.551,243.889z"/>
		<path d="M249.519,319.042V218.719l-7.12-5.008c-7.65-4.529-14.047-10.074-19.181-16.085v92.437H53.021V66.872h170.197v62.13
			c5.403-4.521,12.677-8.631,22.512-11.53c1.267-0.373,2.528-0.711,3.789-1.029V37.891C249.519,16.964,232.555,0,211.628,0H64.612
			C43.685,0,26.721,16.964,26.721,37.891v281.15c0,20.928,16.964,37.893,37.891,37.893h147.017
			C232.556,356.934,249.519,339.969,249.519,319.042z M198.236,34.95c4.488,0,8.125,3.638,8.125,8.125
			c0,4.488-3.637,8.127-8.125,8.127c-4.488,0-8.127-3.639-8.127-8.127C190.109,38.588,193.748,34.95,198.236,34.95z M102.954,36.476
			h70.332v13.27h-70.332V36.476z M138.12,327.756c-7.818,0-14.154-6.337-14.154-14.154c0-7.816,6.336-14.153,14.154-14.153
			c7.817,0,14.154,6.337,14.154,14.153C152.274,321.419,145.937,327.756,138.12,327.756z"/>
	</g>
</g>
<g>
</g>
<g>
</g>
<g>
</g>
<g>
</g>
<g>
</g>
<g>
</g>
<g>
</g>
<g>
</g>
<g>
</g>
<g>
</g>
<g>
</g>
<g>
</g>
<g>
</g>
<g>
</g>
<g>
</g>
</svg>
